<svg xmlns="http://www.w3.org/2000/svg" aria-hidden="true" style="display:none">
  <symbol id="home" viewBox="0 0 24 24"><path d="M3 10.5 12 3l9 7.5"/><path d="M5 9.5V21h14V9.5"/><path d="M9.5 21v-6h5v6"/></symbol>
  <symbol id="box" viewBox="0 0 24 24"><path d="M21 16V8a2 2 0 0 0-1-1.7l-7-4a2 2 0 0 0-2 0l-7 4A2 2 0 0 0 3 8v8a2 2 0 0 0 1 1.7l7 4a2 2 0 0 0 2 0l7-4A2 2 0 0 0 21 16z"/><path d="M3.3 7 12 12l8.7-5M12 22V12"/></symbol>
  <symbol id="layers" viewBox="0 0 24 24"><path d="m12 2 10 5-10 5L2 7z"/><path d="m2 17 10 5 10-5M2 12l10 5 10-5"/></symbol>
  <symbol id="users" viewBox="0 0 24 24"><path d="M17 21v-2a4 4 0 0 0-4-4H5a4 4 0 0 0-4 4v2"/><circle cx="9" cy="7" r="4"/><path d="M23 21v-2a4 4 0 0 0-3-3.9M16 3.1a4 4 0 0 1 0 7.8"/></symbol>
  <symbol id="shield" viewBox="0 0 24 24"><path d="M12 22s8-4 8-10V5l-8-3-8 3v7c0 6 8 10 8 10z"/><path d="m9 12 2 2 4-4"/></symbol>
  <symbol id="trend" viewBox="0 0 24 24"><path d="M3 3v18h18"/><path d="m7 14 3-3 3 3 5-5"/><path d="M18 9h3v3"/></symbol>
  <symbol id="report" viewBox="0 0 24 24"><rect x="4" y="3" width="16" height="18" rx="2"/><path d="M9 8h6M9 12h6M9 16h4"/></symbol>
  <symbol id="bell" viewBox="0 0 24 24"><path d="M18 8A6 6 0 0 0 6 8c0 7-3 9-3 9h18s-3-2-3-9M13.7 21a2 2 0 0 1-3.4 0"/></symbol>
  <symbol id="cal" viewBox="0 0 24 24"><rect x="3" y="4" width="18" height="18" rx="2"/><path d="M16 2v4M8 2v4M3 10h18"/></symbol>
  <symbol id="file" viewBox="0 0 24 24"><path d="M14 2H6a2 2 0 0 0-2 2v16a2 2 0 0 0 2 2h12a2 2 0 0 0 2-2V8z"/><path d="M14 2v6h6"/></symbol>
  <symbol id="gear" viewBox="0 0 24 24"><circle cx="12" cy="12" r="3"/><path d="M19.4 15a1.6 1.6 0 0 0 .3 1.8l.1.1a2 2 0 1 1-2.8 2.8l-.1-.1a1.6 1.6 0 0 0-1.8-.3 1.6 1.6 0 0 0-1 1.5V21a2 2 0 0 1-4 0v-.1a1.6 1.6 0 0 0-1-1.5 1.6 1.6 0 0 0-1.8.3l-.1.1a2 2 0 1 1-2.8-2.8l.1-.1a1.6 1.6 0 0 0 .3-1.8 1.6 1.6 0 0 0-1.5-1H3a2 2 0 0 1 0-4h.1a1.6 1.6 0 0 0 1.5-1 1.6 1.6 0 0 0-.3-1.8l-.1-.1a2 2 0 1 1 2.8-2.8l.1.1a1.6 1.6 0 0 0 1.8.3H9a1.6 1.6 0 0 0 1-1.5V3a2 2 0 0 1 4 0v.1a1.6 1.6 0 0 0 1 1.5 1.6 1.6 0 0 0 1.8-.3l.1-.1a2 2 0 1 1 2.8 2.8l-.1.1a1.6 1.6 0 0 0-.3 1.8V9a1.6 1.6 0 0 0 1.5 1H21a2 2 0 0 1 0 4h-.1a1.6 1.6 0 0 0-1.5 1z"/></symbol>
  <symbol id="cube" viewBox="0 0 24 24"><path d="M12 2 3 7v10l9 5 9-5V7z"/><path d="m3 7 9 5 9-5M12 22V12"/></symbol>
  <!-- Food truck ishlab chiqarish liniyasi -->
  <symbol id="foodtruck" viewBox="0 0 24 24"><path d="M3 6h12v11H3z"/><path d="M15 10h3l3 3v4h-6"/><path d="M3 10h12M5 6v4M9 6v4M13 6v4"/><circle cx="7" cy="18" r="2"/><circle cx="18" cy="18" r="2"/></symbol>
  <symbol id="chassis" viewBox="0 0 24 24"><path d="M3 16h18"/><path d="M5 16V12h14v4"/><path d="M8 12V9h8v3"/><path d="M4 19h16"/><circle cx="7" cy="19" r="2"/><circle cx="17" cy="19" r="2"/></symbol>
  <symbol id="frame" viewBox="0 0 24 24"><rect x="4" y="4" width="16" height="15" rx="1"/><path d="M4 10h16M9 4v15M15 4v15M4 19l5-9 6 9 5-9"/></symbol>
  <symbol id="insulation" viewBox="0 0 24 24"><path d="m12 3 9 5-9 5-9-5z"/><path d="m3 12 9 5 9-5"/><path d="m3 16 9 5 9-5"/></symbol>
  <symbol id="plumbing" viewBox="0 0 24 24"><path d="M6 4v8a4 4 0 0 0 4 4h2"/><path d="M4 4h4M4 8h4"/><path d="M12 16h4"/><path d="M18 7s-3 3.3-3 5.3a3 3 0 0 0 6 0C21 10.3 18 7 18 7z"/></symbol>
  <symbol id="electric" viewBox="0 0 24 24"><path d="M9 3v5M15 3v5"/><path d="M7 8h10v5a5 5 0 0 1-10 0z"/><path d="M12 18v3"/><path d="m13 10-3 5h3l-2 4 4-6h-3z"/></symbol>
  <symbol id="kitchen" viewBox="0 0 24 24"><path d="M5 10h14v8H5z"/><path d="M8 10V7a4 4 0 0 1 8 0v3"/><path d="M3 13h2M19 13h2"/><path d="M8 18v2M16 18v2"/><path d="M9 14h.01M12 14h.01M15 14h.01"/></symbol>
  <symbol id="truckcheck" viewBox="0 0 24 24"><path d="M2 7h12v10H2z"/><path d="M14 11h3l2 3v3h-5"/><circle cx="6" cy="18" r="2"/><circle cx="16" cy="18" r="2"/><path d="m17 6 1.5 1.5L22 4"/></symbol>
  <symbol id="check" viewBox="0 0 24 24"><path d="M22 11.1V12a10 10 0 1 1-5.9-9.1"/><path d="M22 4 12 14.01l-3-3"/></symbol>
  <symbol id="clock" viewBox="0 0 24 24"><circle cx="12" cy="12" r="9"/><path d="M12 7v5l3 3"/></symbol>
  <symbol id="hourglass" viewBox="0 0 24 24"><path d="M6 2h12M6 22h12M6 2c0 4 3 6 6 8 3-2 6-4 6-8M6 22c0-4 3-6 6-8 3 2 6 4 6 8"/></symbol>
  <symbol id="alert" viewBox="0 0 24 24"><path d="M10.3 3.9 1.8 18a2 2 0 0 0 1.7 3h17a2 2 0 0 0 1.7-3L13.7 3.9a2 2 0 0 0-3.4 0z"/><path d="M12 9v4M12 17h.01"/></symbol>
  <symbol id="scissors" viewBox="0 0 24 24"><circle cx="6" cy="6" r="3"/><circle cx="6" cy="18" r="3"/><path d="M20 4 8.1 15.9M14.5 12.5 20 20M8.1 8.1 12 12"/></symbol>
  <symbol id="hammer" viewBox="0 0 24 24"><path d="m14 6 4 4"/><path d="m3 21 10-10"/><path d="m12 5 3-3 6 6-3 3z"/><path d="m8 16 2 2"/></symbol>
  <symbol id="hardhat" viewBox="0 0 24 24"><path d="M3 20h18"/><path d="M6 20v-4a6 6 0 0 1 12 0v4"/><path d="M12 10V5"/><path d="M8 13h8"/></symbol>
  <symbol id="robot" viewBox="0 0 24 24"><rect x="3" y="6" width="18" height="14" rx="3"/><path d="M12 2v4M8 12h.01M16 12h.01M8 16h8"/><circle cx="12" cy="2" r="1"/></symbol>
  <symbol id="shieldcheck" viewBox="0 0 24 24"><path d="M12 22s8-4 8-10V5l-8-3-8 3v7c0 6 8 10 8 10z"/><path d="m8.5 12 2.2 2.2 4.8-4.8"/></symbol>
  <!-- Ishlab chiqarish bosqichlari: generik belgilar emas, moslashtirilgan asboblar. -->
  <symbol id="bolt" viewBox="0 0 24 24"><path d="m3 14 4-4 3 3-4 4H3z"/><path d="m8 9 3-3 5 5-3 3"/><path d="m14 5 2-2 5 5-2 2"/><path d="m10 17 2 2M15 12l2 2"/></symbol>
  <symbol id="weld" viewBox="0 0 24 24"><circle cx="8" cy="5" r="2.5"/><path d="M5 16c.5-4 2-6 5-6l3 3 3-2"/><path d="m9 11-2 7M14 13l4 4"/><path d="m19 17 2 2M19 13l2-1M17 20l1 2"/><path d="M3 21h12"/></symbol>
  <symbol id="wrench" viewBox="0 0 24 24"><path d="M14.7 6.3a5 5 0 0 0-6.4 6.4l-4.8 4.8a2 2 0 1 0 2.8 2.8l4.8-4.8a5 5 0 0 0 6.4-6.4l-3.2 3.2-3-3z"/></symbol>
  <symbol id="gauge" viewBox="0 0 24 24"><path d="M3 20h18"/><path d="M6 20v-3h5"/><path d="M8 17 12 13l3 3 3-5"/><path d="m17 11 2 1 1-2"/><circle cx="8" cy="17" r="2"/><circle cx="14" cy="16" r="1.5"/><path d="M18 5v3M16.5 6.5h3"/></symbol>
  <symbol id="drop" viewBox="0 0 24 24"><path d="M12 2.7 6.3 8.4a8 8 0 1 0 11.4 0z"/></symbol>
  <symbol id="logout" viewBox="0 0 24 24"><path d="M9 21H5a2 2 0 0 1-2-2V5a2 2 0 0 1 2-2h4M16 17l5-5-5-5M21 12H9"/></symbol>
  <symbol id="user" viewBox="0 0 24 24"><circle cx="12" cy="8" r="4"/><path d="M4 21c0-4 4-6 8-6s8 2 8 6"/></symbol>
  <symbol id="truckbody" viewBox="0 0 24 24"><path d="M2 7h11v9H2zM13 10h4l3 3v3h-7z"/><circle cx="6" cy="18" r="1.6"/><circle cx="17" cy="18" r="1.6"/></symbol>
  <symbol id="window" viewBox="0 0 24 24"><rect x="4" y="3" width="16" height="18" rx="1"/><path d="M12 3v18M4 12h16"/></symbol>
  <symbol id="paintroller" viewBox="0 0 24 24"><rect x="3" y="4" width="13" height="6" rx="1"/><path d="M16 7h3a2 2 0 0 1 2 2v2a2 2 0 0 1-2 2h-6v2M11 15v3a2 2 0 0 1-2 2H8"/></symbol>
</svg>
